<svg width="24" height="24" viewBox="0 0 24 24" fill="none" xmlns="http://www.w3.org/2000/svg">
<path d="M12 12L18.75 5.25" stroke="#906354" stroke-width="1.125" stroke-linecap="round" stroke-linejoin="round"/>
<path d="M16.7729 7.22719C15.5773 6.03442 13.9775 5.33383 12.2902 5.26402C10.6028 5.1942 8.95066 5.76025 7.66063 6.85017C6.3706 7.9401 5.53663 9.47451 5.32371 11.1499C5.11079 12.8252 5.53443 14.5195 6.51081 15.8974C7.4872 17.2754 8.94521 18.2367 10.5964 18.5912C12.2476 18.9457 13.9717 18.6675 15.4277 17.8117C16.8836 16.9559 17.9653 15.5849 18.4588 13.9698C18.9523 12.3547 18.8216 10.6131 18.0926 9.08977" stroke="#906354" stroke-width="1.125" stroke-linecap="round" stroke-linejoin="round"/>
<path d="M14.3864 9.61359C13.8281 9.05597 13.092 8.7116 12.3062 8.64033C11.5203 8.56905 10.7343 8.77539 10.0848 9.22347C9.43532 9.67155 8.96334 10.3331 8.75093 11.093C8.53851 11.853 8.59909 12.6633 8.92213 13.3832C9.24518 14.1032 9.81026 14.6871 10.5192 15.0337C11.2281 15.3802 12.036 15.4674 12.8025 15.2801C13.5691 15.0927 14.2457 14.6428 14.7149 14.0083C15.1841 13.3739 15.4162 12.5951 15.3708 11.8073" stroke="#906354" stroke-width="1.125" stroke-linecap="round" stroke-linejoin="round"/>
</svg>
