<svg width="24" height="24" viewBox="0 0 24 24" fill="none" xmlns="http://www.w3.org/2000/svg">
<path d="M15 18.75V17.25C15 16.4544 14.6839 15.6913 14.1213 15.1287C13.5587 14.5661 12.7956 14.25 12 14.25H7.5C6.70435 14.25 5.94129 14.5661 5.37868 15.1287C4.81607 15.6913 4.5 16.4544 4.5 17.25V18.75" stroke="#C0C0CE" stroke-width="1.2" stroke-linecap="round" stroke-linejoin="round"/>
<path d="M15 5.346C15.6433 5.51278 16.213 5.88845 16.6198 6.41405C17.0265 6.93965 17.2471 7.58542 17.2471 8.25C17.2471 8.91458 17.0265 9.56036 16.6198 10.086C16.213 10.6116 15.6433 10.9872 15 11.154" stroke="#C0C0CE" stroke-width="1.2" stroke-linecap="round" stroke-linejoin="round"/>
<path d="M19.5 18.75V17.25C19.4995 16.5853 19.2783 15.9396 18.871 15.4142C18.4638 14.8889 17.8936 14.5137 17.25 14.3475" stroke="#C0C0CE" stroke-width="1.2" stroke-linecap="round" stroke-linejoin="round"/>
<path d="M9.75 11.25C11.4069 11.25 12.75 9.90685 12.75 8.25C12.75 6.59315 11.4069 5.25 9.75 5.25C8.09315 5.25 6.75 6.59315 6.75 8.25C6.75 9.90685 8.09315 11.25 9.75 11.25Z" stroke="#C0C0CE" stroke-width="1.2" stroke-linecap="round" stroke-linejoin="round"/>
</svg>
