<svg width="24" height="24" viewBox="0 0 24 24" fill="none" xmlns="http://www.w3.org/2000/svg">
<path d="M18.75 15V9C18.7497 8.73696 18.6803 8.47861 18.5487 8.25087C18.417 8.02314 18.2278 7.83402 18 7.7025L12.75 4.7025C12.522 4.57085 12.2633 4.50154 12 4.50154C11.7367 4.50154 11.478 4.57085 11.25 4.7025L6 7.7025C5.7722 7.83402 5.58299 8.02314 5.45135 8.25087C5.31971 8.47861 5.25027 8.73696 5.25 9V15C5.25027 15.263 5.31971 15.5214 5.45135 15.7491C5.58299 15.9769 5.7722 16.166 6 16.2975L11.25 19.2975C11.478 19.4292 11.7367 19.4985 12 19.4985C12.2633 19.4985 12.522 19.4292 12.75 19.2975L18 16.2975C18.2278 16.166 18.417 15.9769 18.5487 15.7491C18.6803 15.5214 18.7497 15.263 18.75 15Z" stroke="#C0C0CE" stroke-width="1.2" stroke-linecap="round" stroke-linejoin="round"/>
<path d="M12 15C13.6569 15 15 13.6569 15 12C15 10.3431 13.6569 9 12 9C10.3431 9 9 10.3431 9 12C9 13.6569 10.3431 15 12 15Z" stroke="#C0C0CE" stroke-width="1.2" stroke-linecap="round" stroke-linejoin="round"/>
</svg>
