<svg width="24" height="24" viewBox="0 0 24 24" fill="none" xmlns="http://www.w3.org/2000/svg">
<path d="M18.6667 12H17.0134C16.722 11.9994 16.4385 12.0942 16.2061 12.27C15.9738 12.4458 15.8054 12.6928 15.7267 12.9733L14.16 18.5467C14.1499 18.5813 14.1289 18.6117 14.1 18.6333C14.0712 18.655 14.0361 18.6667 14 18.6667C13.964 18.6667 13.9289 18.655 13.9 18.6333C13.8712 18.6117 13.8501 18.5813 13.84 18.5467L10.16 5.45333C10.1499 5.41871 10.1289 5.3883 10.1 5.36667C10.0712 5.34503 10.0361 5.33333 10 5.33333C9.96398 5.33333 9.92889 5.34503 9.90004 5.36667C9.87119 5.3883 9.85014 5.41871 9.84004 5.45333L8.27337 11.0267C8.19502 11.3061 8.02763 11.5523 7.79662 11.728C7.56561 11.9037 7.28359 11.9992 6.99337 12H5.33337" stroke="#5F5785" stroke-width="1.2" stroke-linecap="round" stroke-linejoin="round"/>
</svg>
