<svg width="1798" height="346" viewBox="0 0 1798 346" fill="none" xmlns="http://www.w3.org/2000/svg">
<g clip-path="url(#clip0_3_13)">
<path d="M170.353 0H136.549V98.1862C136.549 102.523 135.771 106.637 134.547 110.418L45.0344 21.0161L21.1273 44.9232L110.64 134.436C106.748 135.77 102.634 136.438 98.4086 136.438H0V170.241H98.1862C137.994 170.241 170.241 137.883 170.241 98.1862V0H170.353Z" fill="black"/>
<path d="M153.451 225.506V323.692H187.254V225.506C187.254 221.169 188.033 217.055 189.256 213.274L278.769 302.787L302.676 278.88L213.163 189.367C217.055 188.033 221.169 187.366 225.395 187.366H323.581V153.562H225.395C185.586 153.562 153.339 185.92 153.339 225.617L153.451 225.506Z" fill="black"/>
<path d="M251.637 0H204.156V33.8036H251.637C272.764 33.8036 289.888 50.9278 289.888 72.0551V119.536H323.692V72.0551C323.803 32.3581 291.445 0 251.637 0Z" fill="black"/>
<path d="M33.8036 251.637V204.156H0V251.637C0 291.445 32.3581 323.692 72.0551 323.692H119.536V289.888H72.0551C50.9278 289.888 33.8036 272.764 33.8036 251.637Z" fill="black"/>
</g>
<path d="M1719.88 279.707C1703.79 279.707 1690.38 275.908 1679.66 268.31C1669.15 260.489 1662.23 249.651 1658.87 235.796L1663.57 235.126V345.406H1628.71V105.738H1661.89V144.957L1658.54 143.951C1662.11 130.99 1669.71 120.822 1681.33 113.448C1692.95 106.074 1706.58 102.386 1722.23 102.386C1737.65 102.386 1750.94 106.074 1762.12 113.448C1773.51 120.822 1782.23 131.102 1788.26 144.286C1794.52 157.471 1797.65 172.89 1797.65 190.544C1797.65 208.421 1794.41 224.064 1787.93 237.472C1781.45 250.88 1772.4 261.271 1760.77 268.646C1749.15 276.02 1735.52 279.707 1719.88 279.707ZM1712.51 250.88C1727.7 250.88 1739.77 245.517 1748.71 234.79C1757.65 224.064 1762.12 209.315 1762.12 190.544C1762.12 171.996 1757.65 157.583 1748.71 147.303C1739.77 136.8 1727.59 131.549 1712.17 131.549C1696.98 131.549 1684.8 136.912 1675.63 147.638C1666.7 158.141 1662.23 172.778 1662.23 191.55C1662.23 209.874 1666.7 224.399 1675.63 235.126C1684.8 245.629 1697.09 250.88 1712.51 250.88Z" fill="black"/>
<path d="M1515.13 280.042C1497.7 280.042 1482.4 276.243 1469.21 268.646C1456.03 260.824 1445.75 250.21 1438.37 236.802C1431 223.17 1427.31 207.751 1427.31 190.544C1427.31 173.114 1431 157.806 1438.37 144.622C1445.97 131.437 1456.25 121.158 1469.21 113.783C1482.4 106.185 1497.7 102.386 1515.13 102.386C1532.79 102.386 1548.21 106.185 1561.39 113.783C1574.58 121.158 1584.74 131.437 1591.89 144.622C1599.27 157.806 1602.96 173.114 1602.96 190.544C1602.96 207.751 1599.27 223.17 1591.89 236.802C1584.74 250.21 1574.58 260.824 1561.39 268.646C1548.21 276.243 1532.79 280.042 1515.13 280.042ZM1515.13 251.55C1525.64 251.55 1534.69 248.981 1542.28 243.841C1550.11 238.701 1556.25 231.55 1560.72 222.388C1565.19 213.226 1567.42 202.499 1567.42 190.209C1567.42 171.885 1562.51 157.471 1552.68 146.968C1543.07 136.242 1530.55 130.878 1515.13 130.878C1499.94 130.878 1487.42 136.242 1477.59 146.968C1467.98 157.694 1463.18 172.108 1463.18 190.209C1463.18 202.499 1465.3 213.226 1469.55 222.388C1474.02 231.55 1480.16 238.701 1487.98 243.841C1496.03 248.981 1505.08 251.55 1515.13 251.55Z" fill="black"/>
<path d="M1327.15 280.042C1309.72 280.042 1294.41 276.243 1281.22 268.646C1268.04 260.824 1257.76 250.21 1250.39 236.802C1243.01 223.17 1239.32 207.751 1239.32 190.544C1239.32 173.114 1243.01 157.806 1250.39 144.622C1257.98 131.437 1268.26 121.158 1281.22 113.783C1294.41 106.185 1309.72 102.386 1327.15 102.386C1344.8 102.386 1360.22 106.185 1373.4 113.783C1386.59 121.158 1396.76 131.437 1403.91 144.622C1411.28 157.806 1414.97 173.114 1414.97 190.544C1414.97 207.751 1411.28 223.17 1403.91 236.802C1396.76 250.21 1386.59 260.824 1373.4 268.646C1360.22 276.243 1344.8 280.042 1327.15 280.042ZM1327.15 251.55C1337.65 251.55 1346.7 248.981 1354.3 243.841C1362.12 238.701 1368.26 231.55 1372.73 222.388C1377.2 213.226 1379.44 202.499 1379.44 190.209C1379.44 171.885 1374.52 157.471 1364.69 146.968C1355.08 136.242 1342.57 130.878 1327.15 130.878C1311.95 130.878 1299.44 136.242 1289.6 146.968C1279.99 157.694 1275.19 172.108 1275.19 190.209C1275.19 202.499 1277.31 213.226 1281.56 222.388C1286.03 231.55 1292.17 238.701 1300 243.841C1308.04 248.981 1317.09 251.55 1327.15 251.55Z" fill="black"/>
<path d="M1080.47 276.69V35.3464H1116V276.69H1080.47ZM1097.9 276.69V247.528H1237.34V276.69H1097.9Z" fill="black"/>
<path d="M975.592 280.042C955.704 280.042 941.067 275.461 931.681 266.299C922.519 256.914 917.938 243.17 917.938 225.07V66.52L952.463 53.4472V225.405C952.463 234.343 954.81 240.936 959.503 245.182C964.195 249.427 971.793 251.55 982.296 251.55C986.319 251.55 989.894 251.215 993.023 250.545C996.151 249.874 998.833 249.092 1001.07 248.198V276.355C998.609 277.473 995.146 278.366 990.676 279.037C986.207 279.707 981.179 280.042 975.592 280.042ZM883.747 133.56V105.738H1001.07V133.56H883.747Z" fill="black"/>
<path d="M830.419 276.69V105.738H865.28V276.69H830.419ZM828.743 72.2184V33H867.291V72.2184H828.743Z" fill="black"/>
<path d="M771.529 276.69L716.891 198.589L647.505 105.738H687.058L737.003 177.136L811.082 276.69H771.529ZM719.238 177.136L770.188 105.738H808.401L736.668 200.935L719.238 177.136ZM733.316 201.941L678.343 276.69H639.795L716.556 177.471L733.316 201.941Z" fill="black"/>
<path d="M461 276.69V35.3464H496.531V276.69H461ZM478.43 276.69V247.528H628.6V276.69H478.43ZM478.43 166.41V137.247H616.533V166.41H478.43ZM478.43 64.5088V35.3464H625.583V64.5088H478.43Z" fill="black"/>
<defs>
<clipPath id="clip0_3_13">
<rect width="323.803" height="323.803" fill="white"/>
</clipPath>
</defs>
</svg>
