<svg width="324" height="324" viewBox="0 0 324 324" fill="none" xmlns="http://www.w3.org/2000/svg">
<mask id="mask0_20_29" style="mask-type:luminance" maskUnits="userSpaceOnUse" x="0" y="0" width="324" height="324">
<path d="M323.803 0H0V323.803H323.803V0Z" fill="white"/>
</mask>
<g mask="url(#mask0_20_29)">
<path d="M170.353 0H136.549V98.1862C136.549 102.523 135.771 106.637 134.547 110.418L45.0344 21.0161L21.1273 44.9232L110.64 134.436C106.748 135.77 102.634 136.438 98.4086 136.438H0V170.241H98.1862C137.994 170.241 170.241 137.883 170.241 98.1862V0H170.353Z" fill="black"/>
<path d="M153.451 225.506V323.692H187.254V225.506C187.254 221.169 188.033 217.055 189.256 213.274L278.769 302.787L302.676 278.88L213.163 189.367C217.055 188.033 221.169 187.366 225.395 187.366H323.581V153.562H225.395C185.586 153.562 153.339 185.92 153.339 225.617L153.451 225.506Z" fill="black"/>
<path d="M251.637 0H204.156V33.8036H251.637C272.764 33.8036 289.888 50.9278 289.888 72.0551V119.536H323.692V72.0551C323.803 32.3581 291.445 0 251.637 0Z" fill="black"/>
<path d="M33.8036 251.637V204.156H0V251.637C0 291.445 32.3581 323.692 72.0551 323.692H119.536V289.888H72.0551C50.9278 289.888 33.8036 272.764 33.8036 251.637Z" fill="black"/>
</g>
</svg>
