<svg width="44" height="44" viewBox="0 0 44 44" fill="none" xmlns="http://www.w3.org/2000/svg">
<g filter="url(#filter0_ddii_12_58)">
<rect x="6" y="6" width="32" height="32" rx="16" fill="#E1DDF4"/>
<rect x="6.5" y="6.5" width="31" height="31" rx="15.5" stroke="white"/>
<g clip-path="url(#clip0_12_58)">
<path d="M22 17.625V18.875" stroke="#5F5785" stroke-width="1.25" stroke-linecap="round" stroke-linejoin="round"/>
<path d="M22 25.125V26.375" stroke="#5F5785" stroke-width="1.25" stroke-linecap="round" stroke-linejoin="round"/>
<path d="M22 29.5C26.1421 29.5 29.5 26.1421 29.5 22C29.5 17.8579 26.1421 14.5 22 14.5C17.8579 14.5 14.5 17.8579 14.5 22C14.5 26.1421 17.8579 29.5 22 29.5Z" stroke="#5F5785" stroke-width="1.25" stroke-linecap="round" stroke-linejoin="round"/>
<path d="M20.125 25.125H22.9375C23.3519 25.125 23.7493 24.9604 24.0424 24.6674C24.3354 24.3743 24.5 23.9769 24.5 23.5625C24.5 23.1481 24.3354 22.7507 24.0424 22.4576C23.7493 22.1646 23.3519 22 22.9375 22H21.0625C20.6481 22 20.2507 21.8354 19.9576 21.5424C19.6646 21.2493 19.5 20.8519 19.5 20.4375C19.5 20.0231 19.6646 19.6257 19.9576 19.3326C20.2507 19.0396 20.6481 18.875 21.0625 18.875H23.875" stroke="#5F5785" stroke-width="1.25" stroke-linecap="round" stroke-linejoin="round"/>
</g>
</g>
<defs>
<filter id="filter0_ddii_12_58" x="0" y="0" width="44" height="44" filterUnits="userSpaceOnUse" color-interpolation-filters="sRGB">
<feFlood flood-opacity="0" result="BackgroundImageFix"/>
<feColorMatrix in="SourceAlpha" type="matrix" values="0 0 0 0 0 0 0 0 0 0 0 0 0 0 0 0 0 0 127 0" result="hardAlpha"/>
<feOffset dy="2"/>
<feGaussianBlur stdDeviation="2"/>
<feColorMatrix type="matrix" values="0 0 0 0 0 0 0 0 0 0 0 0 0 0 0 0 0 0 0.08 0"/>
<feBlend mode="normal" in2="BackgroundImageFix" result="effect1_dropShadow_12_58"/>
<feColorMatrix in="SourceAlpha" type="matrix" values="0 0 0 0 0 0 0 0 0 0 0 0 0 0 0 0 0 0 127 0" result="hardAlpha"/>
<feOffset/>
<feGaussianBlur stdDeviation="3"/>
<feColorMatrix type="matrix" values="0 0 0 0 0 0 0 0 0 0 0 0 0 0 0 0 0 0 0.02 0"/>
<feBlend mode="normal" in2="effect1_dropShadow_12_58" result="effect2_dropShadow_12_58"/>
<feBlend mode="normal" in="SourceGraphic" in2="effect2_dropShadow_12_58" result="shape"/>
<feColorMatrix in="SourceAlpha" type="matrix" values="0 0 0 0 0 0 0 0 0 0 0 0 0 0 0 0 0 0 127 0" result="hardAlpha"/>
<feOffset dy="4"/>
<feGaussianBlur stdDeviation="2"/>
<feComposite in2="hardAlpha" operator="arithmetic" k2="-1" k3="1"/>
<feColorMatrix type="matrix" values="0 0 0 0 1 0 0 0 0 1 0 0 0 0 1 0 0 0 0.3 0"/>
<feBlend mode="normal" in2="shape" result="effect3_innerShadow_12_58"/>
<feColorMatrix in="SourceAlpha" type="matrix" values="0 0 0 0 0 0 0 0 0 0 0 0 0 0 0 0 0 0 127 0" result="hardAlpha"/>
<feOffset dy="-1"/>
<feGaussianBlur stdDeviation="2"/>
<feComposite in2="hardAlpha" operator="arithmetic" k2="-1" k3="1"/>
<feColorMatrix type="matrix" values="0 0 0 0 0 0 0 0 0 0 0 0 0 0 0 0 0 0 0.15 0"/>
<feBlend mode="normal" in2="effect3_innerShadow_12_58" result="effect4_innerShadow_12_58"/>
</filter>
<clipPath id="clip0_12_58">
<rect width="20" height="20" fill="white" transform="translate(12 12)"/>
</clipPath>
</defs>
</svg>
