<svg width="44" height="44" viewBox="0 0 44 44" fill="none" xmlns="http://www.w3.org/2000/svg">
<g filter="url(#filter0_ddii_12_67)">
<rect x="6" y="6" width="32" height="32" rx="16" fill="#C4F9C8"/>
<rect x="6.5" y="6.5" width="31" height="31" rx="15.5" stroke="white"/>
<path d="M26.5625 22C27.0803 22 27.5 21.5803 27.5 21.0625C27.5 20.5447 27.0803 20.125 26.5625 20.125C26.0447 20.125 25.625 20.5447 25.625 21.0625C25.625 21.5803 26.0447 22 26.5625 22Z" fill="#3A603D"/>
<path d="M21.25 17.625H24.375" stroke="#3A603D" stroke-width="1.25" stroke-linecap="round" stroke-linejoin="round"/>
<path d="M29.375 15.125H23.75" stroke="#3A603D" stroke-width="1.25" stroke-linecap="round" stroke-linejoin="round"/>
<path d="M13.125 23.25C13.125 22.7527 13.3225 22.2758 13.6742 21.9242C14.0258 21.5725 14.5027 21.375 15 21.375" stroke="#3A603D" stroke-width="1.25" stroke-linecap="round" stroke-linejoin="round"/>
<path d="M29.7141 19.5H30C30.3315 19.5 30.6495 19.6317 30.8839 19.8661C31.1183 20.1005 31.25 20.4185 31.25 20.75V23.25C31.25 23.5815 31.1183 23.8995 30.8839 24.1339C30.6495 24.3683 30.3315 24.5 30 24.5H29.375L27.9609 28.4602C27.9176 28.5816 27.8377 28.6867 27.7322 28.761C27.6267 28.8353 27.5009 28.8751 27.3719 28.875H26.3781C26.2491 28.8751 26.1233 28.8353 26.0178 28.761C25.9123 28.6867 25.8324 28.5816 25.7891 28.4602L25.4914 27.625H20.1336L19.8359 28.4602C19.7926 28.5816 19.7127 28.6867 19.6072 28.761C19.5017 28.8353 19.3759 28.8751 19.2469 28.875H18.2531C18.1241 28.8751 17.9983 28.8353 17.8928 28.761C17.7873 28.6867 17.7074 28.5816 17.6641 28.4602L16.6406 25.5938C15.5839 24.4431 14.9983 22.9373 15 21.375C15 19.7174 15.6585 18.1277 16.8306 16.9556C18.0027 15.7835 19.5924 15.125 21.25 15.125H23.75C24.9696 15.1246 26.1627 15.4811 27.1822 16.1505C28.2016 16.8199 29.003 17.7729 29.4875 18.8922C29.5732 19.0908 29.6488 19.2937 29.7141 19.5Z" stroke="#3A603D" stroke-width="1.25" stroke-linecap="round" stroke-linejoin="round"/>
</g>
<defs>
<filter id="filter0_ddii_12_67" x="0" y="0" width="44" height="44" filterUnits="userSpaceOnUse" color-interpolation-filters="sRGB">
<feFlood flood-opacity="0" result="BackgroundImageFix"/>
<feColorMatrix in="SourceAlpha" type="matrix" values="0 0 0 0 0 0 0 0 0 0 0 0 0 0 0 0 0 0 127 0" result="hardAlpha"/>
<feOffset dy="2"/>
<feGaussianBlur stdDeviation="2"/>
<feColorMatrix type="matrix" values="0 0 0 0 0 0 0 0 0 0 0 0 0 0 0 0 0 0 0.08 0"/>
<feBlend mode="normal" in2="BackgroundImageFix" result="effect1_dropShadow_12_67"/>
<feColorMatrix in="SourceAlpha" type="matrix" values="0 0 0 0 0 0 0 0 0 0 0 0 0 0 0 0 0 0 127 0" result="hardAlpha"/>
<feOffset/>
<feGaussianBlur stdDeviation="3"/>
<feColorMatrix type="matrix" values="0 0 0 0 0 0 0 0 0 0 0 0 0 0 0 0 0 0 0.02 0"/>
<feBlend mode="normal" in2="effect1_dropShadow_12_67" result="effect2_dropShadow_12_67"/>
<feBlend mode="normal" in="SourceGraphic" in2="effect2_dropShadow_12_67" result="shape"/>
<feColorMatrix in="SourceAlpha" type="matrix" values="0 0 0 0 0 0 0 0 0 0 0 0 0 0 0 0 0 0 127 0" result="hardAlpha"/>
<feOffset dy="4"/>
<feGaussianBlur stdDeviation="2"/>
<feComposite in2="hardAlpha" operator="arithmetic" k2="-1" k3="1"/>
<feColorMatrix type="matrix" values="0 0 0 0 1 0 0 0 0 1 0 0 0 0 1 0 0 0 0.3 0"/>
<feBlend mode="normal" in2="shape" result="effect3_innerShadow_12_67"/>
<feColorMatrix in="SourceAlpha" type="matrix" values="0 0 0 0 0 0 0 0 0 0 0 0 0 0 0 0 0 0 127 0" result="hardAlpha"/>
<feOffset dy="-1"/>
<feGaussianBlur stdDeviation="2"/>
<feComposite in2="hardAlpha" operator="arithmetic" k2="-1" k3="1"/>
<feColorMatrix type="matrix" values="0 0 0 0 0 0 0 0 0 0 0 0 0 0 0 0 0 0 0.15 0"/>
<feBlend mode="normal" in2="effect3_innerShadow_12_67" result="effect4_innerShadow_12_67"/>
</filter>
</defs>
</svg>
