<svg width="93" height="45" viewBox="0 0 93 45" fill="none" xmlns="http://www.w3.org/2000/svg">
<path fill-rule="evenodd" clip-rule="evenodd" d="M87.4452 22.6065C87.4452 16.7832 84.6246 12.1882 79.2334 12.1882C73.8196 12.1882 70.5439 16.7832 70.5439 22.561C70.5439 29.408 74.411 32.8656 79.9614 32.8656C82.6683 32.8656 84.7156 32.2514 86.2624 31.387V26.8375C84.7156 27.611 82.9413 28.0886 80.6893 28.0886C78.4828 28.0886 76.5265 27.3152 76.2763 24.631H87.3997C87.3997 24.3353 87.4452 23.1525 87.4452 22.6065ZM76.208 20.4455C76.208 17.8751 77.7776 16.8059 79.2107 16.8059C80.5983 16.8059 82.0769 17.8751 82.0769 20.4455H76.208Z" fill="#635BFF"/>
<path fill-rule="evenodd" clip-rule="evenodd" d="M61.7635 12.1882C59.5343 12.1882 58.1012 13.2346 57.305 13.9625L57.0093 12.5522H52.0049V39.0756L57.6917 37.87L57.7145 31.4325C58.5334 32.0239 59.739 32.8656 61.7408 32.8656C65.8125 32.8656 69.5204 29.59 69.5204 22.3791C69.4976 15.7823 65.7443 12.1882 61.7635 12.1882ZM60.3987 27.8612C59.0566 27.8612 58.2604 27.3835 57.7145 26.792L57.6917 18.3528C58.2832 17.6931 59.1021 17.2382 60.3987 17.2382C62.4687 17.2382 63.9018 19.5584 63.9018 22.5383C63.9018 25.5864 62.4914 27.8612 60.3987 27.8612Z" fill="#635BFF"/>
<path fill-rule="evenodd" clip-rule="evenodd" d="M44.1799 10.8461L49.8895 9.61772V5L44.1799 6.20561V10.8461Z" fill="#635BFF"/>
<path d="M49.8895 12.575H44.1799V32.4789H49.8895V12.575Z" fill="#635BFF"/>
<path fill-rule="evenodd" clip-rule="evenodd" d="M38.0608 14.258L37.6969 12.5747H32.7834V32.4787H38.4703V18.9895C39.8124 17.2379 42.0871 17.5564 42.7923 17.8066V12.5747C42.0644 12.3018 39.4029 11.8013 38.0608 14.258Z" fill="#635BFF"/>
<path fill-rule="evenodd" clip-rule="evenodd" d="M26.6869 7.63867L21.1365 8.82154L21.1138 27.0422C21.1138 30.4088 23.6387 32.8883 27.0053 32.8883C28.8706 32.8883 30.2355 32.547 30.9861 32.1376V27.5199C30.2582 27.8156 26.6641 28.862 26.6641 25.4954V17.42H30.9861V12.5749H26.6641L26.6869 7.63867Z" fill="#635BFF"/>
<path fill-rule="evenodd" clip-rule="evenodd" d="M11.3098 18.3528C11.3098 17.4656 12.0377 17.1244 13.2433 17.1244C14.9721 17.1244 17.1558 17.6476 18.8846 18.5802V13.2346C16.9966 12.4839 15.1313 12.1882 13.2433 12.1882C8.62558 12.1882 5.55469 14.5995 5.55469 18.6257C5.55469 24.904 14.1987 23.9031 14.1987 26.6101C14.1987 27.6564 13.2888 27.9977 12.0149 27.9977C10.1269 27.9977 7.71569 27.2242 5.80491 26.1779V31.5917C7.92041 32.5016 10.0587 32.8883 12.0149 32.8883C16.7464 32.8883 19.9993 30.5454 19.9993 26.4736C19.9765 19.6949 11.3098 20.9005 11.3098 18.3528Z" fill="#635BFF"/>
</svg>
