<svg width="44" height="44" viewBox="0 0 44 44" fill="none" xmlns="http://www.w3.org/2000/svg">
<g filter="url(#filter0_ddii_12_81)">
<rect x="6" y="6" width="32" height="32" rx="16" fill="#C4E5F9"/>
<rect x="6.5" y="6.5" width="31" height="31" rx="15.5" stroke="white"/>
<path d="M22 29.5C26.1421 29.5 29.5 26.1421 29.5 22C29.5 17.8579 26.1421 14.5 22 14.5C17.8579 14.5 14.5 17.8579 14.5 22C14.5 26.1421 17.8579 29.5 22 29.5Z" stroke="#3A5F75" stroke-width="1.25" stroke-linecap="round" stroke-linejoin="round"/>
<path d="M22 24.5C23.7259 24.5 25.125 23.1009 25.125 21.375C25.125 19.6491 23.7259 18.25 22 18.25C20.2741 18.25 18.875 19.6491 18.875 21.375C18.875 23.1009 20.2741 24.5 22 24.5Z" stroke="#3A5F75" stroke-width="1.25" stroke-linecap="round" stroke-linejoin="round"/>
<path d="M16.9844 27.5758C17.4546 26.6495 18.1722 25.8716 19.0575 25.3282C19.9428 24.7848 20.9612 24.4972 22 24.4972C23.0388 24.4972 24.0572 24.7848 24.9425 25.3282C25.8278 25.8716 26.5454 26.6495 27.0156 27.5758" stroke="#3A5F75" stroke-width="1.25" stroke-linecap="round" stroke-linejoin="round"/>
</g>
<defs>
<filter id="filter0_ddii_12_81" x="0" y="0" width="44" height="44" filterUnits="userSpaceOnUse" color-interpolation-filters="sRGB">
<feFlood flood-opacity="0" result="BackgroundImageFix"/>
<feColorMatrix in="SourceAlpha" type="matrix" values="0 0 0 0 0 0 0 0 0 0 0 0 0 0 0 0 0 0 127 0" result="hardAlpha"/>
<feOffset dy="2"/>
<feGaussianBlur stdDeviation="2"/>
<feColorMatrix type="matrix" values="0 0 0 0 0 0 0 0 0 0 0 0 0 0 0 0 0 0 0.08 0"/>
<feBlend mode="normal" in2="BackgroundImageFix" result="effect1_dropShadow_12_81"/>
<feColorMatrix in="SourceAlpha" type="matrix" values="0 0 0 0 0 0 0 0 0 0 0 0 0 0 0 0 0 0 127 0" result="hardAlpha"/>
<feOffset/>
<feGaussianBlur stdDeviation="3"/>
<feColorMatrix type="matrix" values="0 0 0 0 0 0 0 0 0 0 0 0 0 0 0 0 0 0 0.02 0"/>
<feBlend mode="normal" in2="effect1_dropShadow_12_81" result="effect2_dropShadow_12_81"/>
<feBlend mode="normal" in="SourceGraphic" in2="effect2_dropShadow_12_81" result="shape"/>
<feColorMatrix in="SourceAlpha" type="matrix" values="0 0 0 0 0 0 0 0 0 0 0 0 0 0 0 0 0 0 127 0" result="hardAlpha"/>
<feOffset dy="4"/>
<feGaussianBlur stdDeviation="2"/>
<feComposite in2="hardAlpha" operator="arithmetic" k2="-1" k3="1"/>
<feColorMatrix type="matrix" values="0 0 0 0 1 0 0 0 0 1 0 0 0 0 1 0 0 0 0.3 0"/>
<feBlend mode="normal" in2="shape" result="effect3_innerShadow_12_81"/>
<feColorMatrix in="SourceAlpha" type="matrix" values="0 0 0 0 0 0 0 0 0 0 0 0 0 0 0 0 0 0 127 0" result="hardAlpha"/>
<feOffset dy="-1"/>
<feGaussianBlur stdDeviation="2"/>
<feComposite in2="hardAlpha" operator="arithmetic" k2="-1" k3="1"/>
<feColorMatrix type="matrix" values="0 0 0 0 0 0 0 0 0 0 0 0 0 0 0 0 0 0 0.15 0"/>
<feBlend mode="normal" in2="effect3_innerShadow_12_81" result="effect4_innerShadow_12_81"/>
</filter>
</defs>
</svg>
